<?xml version="1.0" encoding="iso-8859-1"?>
<!-- Generator: Adobe Illustrator 19.0.0, SVG Export Plug-In . SVG Version: 6.00 Build 0)  -->
<svg version="1.1" id="Capa_1" xmlns="http://www.w3.org/2000/svg" xmlns:xlink="http://www.w3.org/1999/xlink" x="0px" y="0px"
	 viewBox="0 0 438.067 438.067" style="enable-background:new 0 0 438.067 438.067;" xml:space="preserve" fill="#fff">
<g>
	<g>
		<path d="M340.713,283.458c-0.641-0.639-1.329-1.199-2.065-1.631c-24.72-15.536-57.695-12.624-79.216,8.897l-11.311,11.327V149.812
			c0-17.601-14.4-32-32-32c-17.601,0-32,14.399-32,32v70.399c-5.841-7.168-14.641-11.84-24.608-11.84
			c-6.928,0-13.311,2.273-18.544,6.032l-68.912,39.888c-9.52,5.536-15.936,15.792-15.936,27.568v52.624
			c0,57.216,46.367,103.584,103.584,103.584c27.712,0,52.815-10.944,71.392-28.672l0.016,0.143l109.616-109.616
			C345.273,295.378,345.273,288.002,340.713,283.458z"/>
	</g>
</g>
<g>
	<g>
		<polygon points="381.946,150.146 328.274,96.458 328.274,134.067 280.135,134.067 280.135,166.225 328.274,166.225 
			328.274,203.834 		"/>
	</g>
</g>
<g>
	<g>
		<polygon points="109.807,134.067 109.807,96.458 56.135,150.146 109.807,203.834 109.807,166.225 157.946,166.225 
			157.946,134.067 		"/>
	</g>
</g>
<g>
	<g>
		<polygon points="216.056,0 162.368,53.672 199.977,53.672 199.977,101.812 232.135,101.812 232.135,53.672 269.744,53.672 		"/>
	</g>
</g>
<g>
</g>
<g>
</g>
<g>
</g>
<g>
</g>
<g>
</g>
<g>
</g>
<g>
</g>
<g>
</g>
<g>
</g>
<g>
</g>
<g>
</g>
<g>
</g>
<g>
</g>
<g>
</g>
<g>
</g>
</svg>
