<svg height="496pt" viewBox="0 0 496 496" width="496pt" xmlns="http://www.w3.org/2000/svg"><path d="m488 120v336c0 17.671875-14.328125 32-32 32h-416c-17.671875 0-32-14.328125-32-32v-416c0-17.671875 14.328125-32 32-32h336zm0 0" fill="#2d4d83"/><path d="m40 8c-17.671875 0-32 14.328125-32 32v356.289062c41.566406 22.757813 89.273438 35.710938 140 35.710938 161.265625 0 292-130.734375 292-292 0-27.34375-3.839844-53.769531-10.863281-78.863281l-53.136719-53.136719zm0 0" fill="#4472b2"/><path d="m152 8h192v128h-192zm0 0" fill="#e8eff4"/><path d="m280 40h32v64h-32zm0 0" fill="#857970"/><path d="m152 8h32v128h-32zm0 0" fill="#857970"/><path d="m40 248h416v208h-416zm0 0" fill="#fff"/><path d="m352 280h-208c-39.769531 0-72 32.230469-72 72s32.230469 72 72 72c34.257812 0 62.871094-23.945312 70.152344-56h67.6875c7.289062 32.054688 35.894531 56 70.152344 56 39.769531 0 72-32.230469 72-72 .007812-39.769531-32.222657-72-71.992188-72zm0 0" fill="#f0d365"/><path d="m456 496h-416c-22.054688 0-40-17.945312-40-40v-416c0-22.054688 17.945312-40 40-40h336c2.121094 0 4.160156.839844 5.65625 2.34375l112 112c1.503906 1.496094 2.34375 3.535156 2.34375 5.65625v336c0 22.054688-17.945312 40-40 40zm-416-480c-13.230469 0-24 10.769531-24 24v416c0 13.230469 10.769531 24 24 24h416c13.230469 0 24-10.769531 24-24v-332.6875l-107.3125-107.3125zm0 0"/><path d="m344 144h-192c-4.414062 0-8-3.585938-8-8v-128c0-4.414062 3.585938-8 8-8h192c4.414062 0 8 3.585938 8 8v128c0 4.414062-3.585938 8-8 8zm-184-16h176v-112h-176zm0 0"/><path d="m456 464h-416c-4.414062 0-8-3.585938-8-8v-208c0-4.414062 3.585938-8 8-8h416c4.414062 0 8 3.585938 8 8v208c0 4.414062-3.585938 8-8 8zm-408-16h400v-192h-400zm0 0"/><path d="m312 112h-32c-4.414062 0-8-3.585938-8-8v-64c0-4.414062 3.585938-8 8-8h32c4.414062 0 8 3.585938 8 8v64c0 4.414062-3.585938 8-8 8zm-24-16h16v-48h-16zm0 0"/><path d="m176 8h16v128h-16zm0 0"/><path d="m344 384h16v16h-16zm0 0"/><path d="m344 320h16v16h-16zm0 0"/><path d="m136 320h16v80h-16zm0 0"/><path d="m104 352h80v16h-80zm0 0"/><path d="m376 352h16v16h-16zm0 0"/><path d="m312 352h16v16h-16zm0 0"/><path d="m224 328h48v16h-48zm0 0"/><path d="m352 432c-35.40625 0-65.910156-22.71875-76.28125-56h-55.4375c-10.371094 33.28125-40.875 56-76.28125 56-44.113281 0-80-35.886719-80-80s35.886719-80 80-80h208c44.113281 0 80 35.886719 80 80s-35.886719 80-80 80zm-137.839844-72h67.6875c3.738282 0 6.976563 2.585938 7.800782 6.222656 6.65625 29.304688 32.304687 49.777344 62.351562 49.777344 35.289062 0 64-28.710938 64-64s-28.710938-64-64-64h-208c-35.289062 0-64 28.710938-64 64s28.710938 64 64 64c30.046875 0 55.695312-20.472656 62.351562-49.777344.832032-3.636718 4.074219-6.222656 7.808594-6.222656zm0 0"/></svg>