<svg height="480pt" viewBox="-8 0 480 480" width="480pt" xmlns="http://www.w3.org/2000/svg" fill="#fff"><path d="m224 0h16v48h-16zm0 0"/><path d="m62.292969 73.613281 11.316406-11.3125 33.933594 33.9375-11.3125 11.3125zm0 0"/><path d="m0 224h48v16h-48zm0 0"/><path d="m416 224h48v16h-48zm0 0"/><path d="m356.453125 96.242188 33.933594-33.9375 11.3125 11.316406-33.933594 33.933594zm0 0"/><path d="m328 416h-192c-4.414062 0-8 3.585938-8 8s3.585938 8 8 8h192c4.414062 0 8-3.585938 8-8s-3.585938-8-8-8zm0 0"/><path d="m232 480c24.28125 0 46.511719-12.28125 59.734375-32h-119.445313c13.199219 19.726562 35.351563 32 59.710938 32zm0 0"/><path d="m328 384h-192c-4.414062 0-8 3.585938-8 8s3.585938 8 8 8h192c4.414062 0 8-3.585938 8-8s-3.585938-8-8-8zm0 0"/><path d="m223.777344 80.222656c-78.90625 4.152344-142.042969 69.363282-143.738282 148.449219-.960937 44.71875 17.746094 87.382813 51.3125 117.0625 7.3125 6.464844 13.28125 13.976563 17.953126 22.273437h165.152343c4.542969-8.136718 10.304688-15.398437 17.335938-21.527343 33.183593-28.894531 52.207031-70.617188 52.207031-114.480469 0-42.121094-16.832031-81.289062-47.40625-110.289062-30.546875-28.984376-70.730469-43.742188-112.816406-41.488282zm136.222656 119.777344v24h-23.144531c-4.304688 0-8.144531 2.894531-8.742188 6.601562-.402343 2.421876.230469 4.757813 1.78125 6.574219 1.519531 1.792969 3.753907 2.824219 6.105469 2.824219h24v24c0 13.230469-10.769531 24-24 24h-136v-16c0-2.351562-1.03125-4.574219-2.824219-6.105469-1.824219-1.535156-4.167969-2.183593-6.574219-1.78125-3.707031.605469-6.601562 4.445313-6.601562 8.75v15.144531h-24c-13.230469 0-24-10.769531-24-24v-8h-8c-7.054688 0-13.71875-3.085937-18.289062-8.464843-4.566407-5.375-6.527344-12.488281-5.390626-19.511719 1.855469-11.414062 12.414063-20.023438 24.535157-20.023438h7.144531v-8c0-13.230468 10.769531-24 24-24h24v16c0 2.351563 1.03125 4.578126 2.824219 6.105469 1.832031 1.542969 4.183593 2.175781 6.574219 1.78125 3.707031-.613281 6.601562-4.445312 6.601562-8.742187v-15.152344h72v-8c0-7.054688 3.089844-13.71875 8.464844-18.289062 5.375-4.574219 12.480468-6.519532 19.511718-5.390626 11.414063 1.863282 20.023438 12.414063 20.023438 24.542969v7.144531h16c13.230469-.007812 24 10.761719 24 23.992188zm0 0"/><path d="m262.105469 237.183594c1.542969-1.824219 2.175781-4.160156 1.78125-6.574219-.597657-3.707031-4.4375-6.601563-8.742188-6.601563h-23.144531v-32h-16.015625c-.390625 11.769532-8.855469 21.855469-20.007813 23.679688-7.039062 1.136719-14.144531-.816406-19.511718-5.390625-5.375-4.578125-8.464844-11.242187-8.464844-18.296875h-8c-4.414062 0-8 3.585938-8 8v24h-23.144531c-4.304688 0-8.144531 2.894531-8.742188 6.601562-.402343 2.421876.230469 4.757813 1.78125 6.574219 1.519531 1.792969 3.753907 2.824219 6.105469 2.824219h24v24c0 4.414062 3.585938 8 8 8h8.015625c.390625-11.769531 8.863281-21.855469 20.007813-23.679688 7.039062-1.136718 14.144531.816407 19.511718 5.390626 5.375 4.570312 8.464844 11.234374 8.464844 18.289062h16v-32h24c2.351562 0 4.574219-1.03125 6.105469-2.816406zm0 0"/><path d="m304 192v-23.144531c0-4.304688-2.894531-8.144531-6.601562-8.742188-2.4375-.417969-4.757813.230469-6.574219 1.78125-1.792969 1.53125-2.824219 3.753907-2.824219 6.105469v24h-40v16h7.144531c12.128907 0 22.679688 8.609375 24.535157 20.023438 1.144531 7.03125-.824219 14.144531-5.390626 19.511718-4.570312 5.375-11.234374 8.464844-18.289062 8.464844h-8v16h88c4.414062 0 8-3.585938 8-8v-8h-8c-7.054688 0-13.71875-3.089844-18.289062-8.464844-4.566407-5.375-6.527344-12.488281-5.390626-19.511718 1.855469-11.414063 12.414063-20.023438 24.535157-20.023438h7.144531v-8c0-4.414062-3.585938-8-8-8zm0 0"/></svg>